<svg width="362" height="174" viewBox="0 0 362 174" fill="none" xmlns="http://www.w3.org/2000/svg">
<path d="M272.57 174H242.244C241.51 174 241.102 173.593 241.021 172.779L211.428 0.976842C211.265 0.325614 211.51 0 212.162 0H240.287C240.939 0 241.347 0.325614 241.51 0.976842L257.529 113.924L274.037 0.976842C274.2 0.325614 274.69 0 275.505 0H298.127C298.779 0 299.187 0.325614 299.35 0.976842L315.614 113.924L331.878 0.976842C332.041 0.325614 332.448 0 333.1 0H360.981C361.796 0 362.122 0.325614 361.959 0.976842L332.122 172.779C332.041 173.105 331.796 173.389 331.388 173.634L330.899 174H300.573C300.084 174 299.676 173.593 299.35 172.779L286.51 83.0316L273.793 172.779C273.711 173.593 273.304 174 272.57 174Z" fill="#04153D"/>
<path d="M172.297 174H144.05C143.316 174 142.949 173.593 142.949 172.779V30.16H110.422C109.607 30.16 109.199 29.753 109.199 28.9389L109.444 0.976842C109.444 0.325614 109.77 0 110.422 0H205.559C206.455 0 206.904 0.325614 206.904 0.976842V28.9389C206.904 29.753 206.578 30.16 205.925 30.16H173.031L173.276 172.779C173.276 173.593 172.95 174 172.297 174Z" fill="#04153D"/>
<path d="M29.348 174H0.978268C0.326089 174 0 173.593 0 172.779L0.244567 0.976842C0.244567 0.325614 0.652179 0 1.4674 0H29.348C30.1633 0 30.5709 0.325614 30.5709 0.976842L30.3263 68.9895H67.8673V0.976842C67.8673 0.325614 68.1934 0 68.8456 0H96.7263C97.5415 0 97.9491 0.325614 97.9491 0.976842L98.4382 172.779C98.4382 173.593 98.0306 174 97.2154 174H69.0902C68.275 174 67.8673 173.593 67.8673 172.779V99.2716H30.3263V172.779C30.3263 173.593 30.0002 174 29.348 174Z" fill="#04153D"/>
</svg>
